<?xml version="1.0" encoding="UTF-8" standalone="no"?>
<svg
   xmlns:dc="http://purl.org/dc/elements/1.1/"
   xmlns:cc="http://creativecommons.org/ns#"
   xmlns:rdf="http://www.w3.org/1999/02/22-rdf-syntax-ns#"
   xmlns:svg="http://www.w3.org/2000/svg"
   xmlns="http://www.w3.org/2000/svg"
   xmlns:sodipodi="http://sodipodi.sourceforge.net/DTD/sodipodi-0.dtd"
   xmlns:inkscape="http://www.inkscape.org/namespaces/inkscape"
   width="175.51974mm"
   height="48.611828mm"
   viewBox="0 0 175.51974 48.611828"
   version="1.1"
   id="svg8"
   inkscape:version="1.0.1 (3bc2e813f5, 2020-09-07)"
   sodipodi:docname="next_adventure_text.svg">
  <defs
     id="defs2">
    <rect
       x="272.14285"
       y="79.375"
       width="86.934525"
       height="14.363095"
       id="rect845" />
    <rect
       x="27.970238"
       y="74.839287"
       width="154.21429"
       height="47.625"
       id="rect835" />
  </defs>
  <sodipodi:namedview
     id="base"
     pagecolor="#ffffff"
     bordercolor="#666666"
     borderopacity="1.0"
     inkscape:pageopacity="0.0"
     inkscape:pageshadow="2"
     inkscape:zoom="0.35"
     inkscape:cx="284.6317"
     inkscape:cy="209.20752"
     inkscape:document-units="mm"
     inkscape:current-layer="layer1"
     inkscape:document-rotation="0"
     showgrid="false"
     inkscape:window-width="1624"
     inkscape:window-height="1020"
     inkscape:window-x="38"
     inkscape:window-y="0"
     inkscape:window-maximized="0"
     fit-margin-top="0"
     fit-margin-left="0"
     fit-margin-right="0"
     fit-margin-bottom="0" />
  <metadata
     id="metadata5">
    <rdf:RDF>
      <cc:Work
         rdf:about="">
        <dc:format>image/svg+xml</dc:format>
        <dc:type
           rdf:resource="http://purl.org/dc/dcmitype/StillImage" />
        <dc:title></dc:title>
      </cc:Work>
    </rdf:RDF>
  </metadata>
  <g
     inkscape:label="Layer 1"
     inkscape:groupmode="layer"
     id="layer1"
     transform="translate(-30.524529,-92.813844)">
    <text
       xml:space="preserve"
       id="text833"
       style="font-style:normal;font-weight:normal;font-size:10.5833px;line-height:1.25;font-family:sans-serif;white-space:pre;shape-inside:url(#rect835);fill:#000000;fill-opacity:1;stroke:none;" />
    <g
       id="g977"
       style="fill:#ffffff">
      <g
         id="g949"
         style="fill:#ffffff">
        <path
           d="m 53.196012,94.413733 q -0.136426,0 -0.136426,-0.186035 0,-0.186036 0.09922,-0.235645 0.111621,-0.06201 0.359668,-0.186035 0.260449,-0.136426 0.359668,-0.173633 0.09922,-0.04961 0.310059,-0.148828 0.210839,-0.09922 0.334863,-0.136426 0.136426,-0.03721 0.322461,-0.09922 0.310058,-0.08682 0.768945,-0.08682 0.471289,0 0.954981,0.322461 0.496093,0.322461 0.496093,0.843359 0,1.079004 -0.942578,2.864942 -0.942578,1.773535 -2.418457,3.695897 -1.475879,1.92238 -3.311426,3.90677 -1.835546,1.98438 -3.584277,3.54708 -1.74873,1.56271 -3.299023,2.5549 -1.537891,0.99219 -2.368848,0.99219 -1.761133,0 -1.761133,-1.59991 0,-2.24483 2.542481,-6.48646 -4.948535,5.85394 -8.284766,7.55306 -0.868164,0.4465 -1.32705,0.4465 -0.458887,0 -1.128614,-0.55812 -0.657324,-0.57051 -0.657324,-1.11621 0,-3.0882 4.291211,-8.64448 1.637109,-2.120807 4.080371,-4.737702 -2.133203,1.847949 -3.249414,1.847949 -0.595313,0 -0.880566,-0.58291 -0.26045,-0.421679 -0.26045,-0.79375 0,-0.384472 0.496094,-0.830957 0.496094,-0.446484 0.58291,-0.446484 0.08682,0 0.161231,0.06201 0.07441,0.06201 0.07441,0.111621 -0.173633,0.186035 -0.173633,0.248047 0,0.04961 0.148828,0.04961 0.148828,0 2.480469,-1.413867 2.33164,-1.42627 2.554883,-1.42627 0.644921,0 1.240234,0.359668 0.595312,0.347266 0.595312,0.595313 0,0.235644 -0.248046,0.632519 -0.248047,0.396875 -2.951758,3.894336 -2.703711,3.485067 -3.931543,5.283427 -1.227832,1.78594 -1.79834,2.93937 -0.570508,1.14102 -0.570508,1.38907 0,0.24804 0.07441,0.24804 0.520899,0 3.720703,-3.13781 3.212207,-3.15021 6.114356,-6.213601 2.902148,-3.075781 3.150195,-3.410644 0.260449,-0.334863 0.558105,-0.471289 0.297657,-0.148828 0.892969,-0.148828 1.661914,0 1.661914,0.632519 0,0.260449 -0.731738,1.103809 -0.719336,0.843359 -1.016992,1.227832 -1.550293,1.971972 -3.460254,5.556272 -1.897559,3.5843 -1.897559,4.58889 0,0.27285 0.173633,0.27285 0.186035,0 1.066602,-0.69453 0.892968,-0.70694 2.344043,-2.09601 1.451074,-1.40147 3.299023,-3.46027 1.847949,-2.0588 3.522266,-4.564077 1.686718,-2.517676 1.686718,-3.162598 0,-0.644922 -0.496093,-0.644922 z"
           style="font-style:normal;font-variant:normal;font-weight:normal;font-stretch:normal;font-size:25.4px;line-height:1.25;font-family:Yellowtail;-inkscape-font-specification:'Yellowtail, Normal';font-variant-ligatures:normal;font-variant-caps:normal;font-variant-numeric:normal;font-variant-east-asian:normal;fill:#ffffff;fill-opacity:1;stroke:none;stroke-width:0.264583"
           id="path849" />
        <path
           d="m 63.167497,107.91993 q 0.08682,0.57051 0.08682,0.90537 0,0.32247 -0.124023,0.57051 -0.111621,0.23565 -0.520899,0.68214 -0.396875,0.43408 -0.95498,0.88056 -1.364258,1.07901 -2.790528,1.07901 -2.046386,0 -2.046386,-1.81074 0,-1.57511 2.740918,-6.27562 0.09922,-0.17364 0.136425,-0.24805 -0.95498,0.66973 -3.658691,3.65871 -2.691308,2.97658 -3.584277,4.21681 -0.07441,0.11162 -0.37207,0.24805 -0.297657,0.13643 -0.47129,0.13643 -0.16123,0 -0.347265,-0.11163 -0.198438,-0.0992 -0.248047,-0.0992 -0.16123,0 -0.16123,-0.11162 0,-0.0992 0.446484,-1.12862 0.434082,-1.0418 1.153418,-2.5797 1.971972,-4.24162 5.866308,-11.038125 1.364258,-2.38125 2.133203,-3.373437 0.545704,-0.706934 1.835547,-0.706934 0.272852,0 0.310059,0.161231 0.03721,0.16123 0.03721,0.347265 0,0.186036 -0.07441,0.372071 l -1.327051,2.071191 q -3.943945,6.151568 -5.940722,10.194758 1.934765,-2.35646 3.75791,-3.63391 1.128613,-0.80615 1.686718,-0.80615 0.570508,0 1.029395,0.18603 0.458887,0.17364 0.458887,0.85577 0,0.24805 -0.806153,1.83556 -2.418457,4.76252 -2.418457,5.29583 0,0.5209 0.434082,0.5209 0.63252,0 1.947168,-1.22784 0.992188,-0.93018 1.252637,-1.19063 0.148828,-0.11162 0.272851,-0.11162 0.235645,0 0.26045,0.23564 z"
           style="font-style:normal;font-variant:normal;font-weight:normal;font-stretch:normal;font-size:25.4px;line-height:1.25;font-family:Yellowtail;-inkscape-font-specification:'Yellowtail, Normal';font-variant-ligatures:normal;font-variant-caps:normal;font-variant-numeric:normal;font-variant-east-asian:normal;fill:#ffffff;fill-opacity:1;stroke:none;stroke-width:0.264583"
           id="path851" />
        <path
           d="m 70.770133,102.30163 q 0,0.81856 -0.669726,1.43869 -0.657324,0.62012 -1.500684,0.62012 -0.272851,0 -0.359668,-0.12403 -0.08682,-0.13643 -0.08682,-0.34727 0,-0.21084 0.04961,-0.40928 -0.446484,0.14883 -0.992187,0.45889 -0.545703,0.31006 -1.339453,0.91778 -0.79375,0.60772 -0.79375,0.90538 0,0.0992 0.285254,0.0992 0.297656,0 0.905371,-0.19844 0.607715,-0.21084 0.843359,-0.21084 0.248047,0 0.322461,0.0248 0.16123,0.0868 0.347266,0.38447 0.186035,0.28526 0.186035,0.45889 0,0.16123 -0.322461,0.43409 -0.322461,0.27285 -0.731738,0.42168 -0.409278,0.13642 -0.545704,0.21084 -2.616894,1.46348 -2.616894,2.00919 0,0.96739 1.649512,0.96739 1.054199,0 2.1208,-0.66973 0.905371,-0.57051 1.624707,-1.15342 0.731739,-0.59532 0.917774,-0.73175 0.198437,-0.13642 0.297656,-0.13642 0.322461,0 0.322461,0.71933 0,0.71935 -0.08682,0.95499 -0.08682,0.22325 -0.496094,0.55811 -2.654102,2.15801 -5.022949,2.15801 -1.265039,0 -2.021582,-0.34727 -1.389063,-0.63252 -1.389063,-1.93476 0,-1.71154 2.368848,-2.59211 -0.471289,-0.21084 -0.607715,-0.5333 -0.136426,-0.33487 -0.136426,-1.05421 0,-0.73174 0.669727,-1.5379 0.682129,-0.81856 1.661914,-1.33946 2.182812,-1.17823 3.894336,-1.17823 0.409277,0 0.830957,0.19844 0.421679,0.19844 0.421679,0.55811 z"
           style="font-style:normal;font-variant:normal;font-weight:normal;font-stretch:normal;font-size:25.4px;line-height:1.25;font-family:Yellowtail;-inkscape-font-specification:'Yellowtail, Normal';font-variant-ligatures:normal;font-variant-caps:normal;font-variant-numeric:normal;font-variant-east-asian:normal;fill:#ffffff;fill-opacity:1;stroke:none;stroke-width:0.264583"
           id="path853" />
        <path
           d="m 74.354411,104.81933 q 2.926953,-3.32385 4.985742,-3.32385 0.508496,0 0.830957,0.31006 0.334863,0.29765 0.334863,0.78135 0,0.48369 -0.694531,1.62471 -0.682129,1.12863 -1.265039,1.90998 -0.310059,0.39688 -0.706934,0.39688 -0.384472,0 -0.607714,-0.28526 -0.21084,-0.28526 -0.21084,-0.66973 0,-0.85577 0.917773,-1.93478 l -0.02481,-0.0248 q -0.409277,0.0372 -2.033984,1.61232 -1.612305,1.5751 -2.75332,2.82775 -1.128613,1.24024 -2.455664,3.02618 -0.384473,0.5333 -0.657324,0.5333 -0.26045,0 -0.694532,-0.16123 -0.446484,-0.17363 -0.5333,-0.24805 -0.09922,-0.0744 -0.09922,-0.24804 0,-0.17364 0.09922,-0.39688 0.09922,-0.23564 0.37207,-0.65732 0.260449,-0.42169 0.79375,-1.36427 0.545703,-0.94258 1.686719,-2.85255 1.141015,-1.90997 1.364257,-2.30685 0.471289,-0.81856 0.768946,-1.19063 0.558105,-0.70694 1.885156,-0.70694 0.297656,0 0.297656,0.37207 0,0.58291 -1.079004,2.19523 z"
           style="font-style:normal;font-variant:normal;font-weight:normal;font-stretch:normal;font-size:25.4px;line-height:1.25;font-family:Yellowtail;-inkscape-font-specification:'Yellowtail, Normal';font-variant-ligatures:normal;font-variant-caps:normal;font-variant-numeric:normal;font-variant-east-asian:normal;fill:#ffffff;fill-opacity:1;stroke:none;stroke-width:0.264583"
           id="path855" />
        <path
           d="m 87.699333,102.30163 q 0,0.81856 -0.66973,1.43869 -0.65732,0.62012 -1.50068,0.62012 -0.27285,0 -0.35967,-0.12403 -0.0868,-0.13643 -0.0868,-0.34727 0,-0.21084 0.0496,-0.40928 -0.44648,0.14883 -0.99218,0.45889 -0.54571,0.31006 -1.33946,0.91778 -0.79375,0.60772 -0.79375,0.90538 0,0.0992 0.28526,0.0992 0.29765,0 0.90537,-0.19844 0.60771,-0.21084 0.84336,-0.21084 0.24805,0 0.32246,0.0248 0.16123,0.0868 0.34726,0.38447 0.18604,0.28526 0.18604,0.45889 0,0.16123 -0.32246,0.43409 -0.32246,0.27285 -0.73174,0.42168 -0.40928,0.13642 -0.5457,0.21084 -2.616897,1.46348 -2.616897,2.00919 0,0.96739 1.649507,0.96739 1.0542,0 2.12081,-0.66973 0.90537,-0.57051 1.6247,-1.15342 0.73174,-0.59532 0.91778,-0.73175 0.19843,-0.13642 0.29765,-0.13642 0.32246,0 0.32246,0.71933 0,0.71935 -0.0868,0.95499 -0.0868,0.22325 -0.4961,0.55811 -2.6541,2.15801 -5.02295,2.15801 -1.265035,0 -2.021578,-0.34727 -1.389063,-0.63252 -1.389063,-1.93476 0,-1.71154 2.368848,-2.59211 -0.471289,-0.21084 -0.607715,-0.5333 -0.136426,-0.33487 -0.136426,-1.05421 0,-0.73174 0.669727,-1.5379 0.682129,-0.81856 1.661917,-1.33946 2.18281,-1.17823 3.89433,-1.17823 0.40928,0 0.83096,0.19844 0.42168,0.19844 0.42168,0.55811 z"
           style="font-style:normal;font-variant:normal;font-weight:normal;font-stretch:normal;font-size:25.4px;line-height:1.25;font-family:Yellowtail;-inkscape-font-specification:'Yellowtail, Normal';font-variant-ligatures:normal;font-variant-caps:normal;font-variant-numeric:normal;font-variant-east-asian:normal;fill:#ffffff;fill-opacity:1;stroke:none;stroke-width:0.264583"
           id="path857" />
        <path
           d="m 94.681853,94.537756 q 0.33486,-0.58291 1.19062,-0.58291 0.86817,0 0.86817,0.458887 0,0.446484 -0.74414,1.885156 -0.73174,1.426269 -1.64951,2.716113 -0.90538,1.289848 -1.31465,1.289848 -0.16123,0 -0.54571,-0.26045 -0.37207,-0.260453 -0.37207,-0.483695 0,-0.483691 2.56729,-5.022949 z"
           style="font-style:normal;font-variant:normal;font-weight:normal;font-stretch:normal;font-size:25.4px;line-height:1.25;font-family:Yellowtail;-inkscape-font-specification:'Yellowtail, Normal';font-variant-ligatures:normal;font-variant-caps:normal;font-variant-numeric:normal;font-variant-east-asian:normal;fill:#ffffff;fill-opacity:1;stroke:none;stroke-width:0.264583"
           id="path859" />
        <path
           d="m 93.441613,109.09816 -0.0124,0.19844 q 0,0.31006 0.23565,0.5333 0.23564,0.22324 0.43408,0.22324 1.48828,0 2.6293,-0.44648 1.15341,-0.44649 1.15341,-0.89298 0,-0.21084 -0.42168,-0.35967 -0.40927,-0.16123 -1.40146,-0.38447 -0.97979,-0.23565 -1.42627,-0.35967 -0.44649,-0.13643 -0.70693,-0.24805 -0.26045,-0.11162 -0.53331,-0.31006 -0.58291,-0.40928 -0.58291,-1.21544 0,-0.81856 0.59532,-1.61231 0.60771,-0.80616 1.51308,-1.37667 0.90537,-0.57051 1.94717,-1.0046 2.05879,-0.85576 3.460247,-0.85576 1.37666,0 1.69913,0.59531 0.0992,0.21085 0.0992,0.47129 v 0.0868 q 0,0.65732 -0.28525,1.02939 -0.27285,0.37208 -0.88057,0.66974 -0.59531,0.29765 -0.95498,0.29765 -0.347257,0 -0.446477,-0.0496 -0.0868,-0.0496 -0.14883,-0.12402 -0.062,-0.0868 -0.16123,-0.12402 -0.0868,-0.0372 -0.0868,-0.18604 0,-0.14883 0.12403,-0.29766 0.12402,-0.16123 0.17363,-0.33486 -0.81855,0.0372 -1.71152,0.38447 -0.89297,0.33487 -1.53789,0.75655 -0.63252,0.42168 -1.0542,0.80616 -0.42168,0.38447 -0.42168,0.57051 0,0.17363 0.57051,0.28525 2.56728,0.5085 3.37343,0.88057 0.80616,0.37208 1.11621,0.84337 0.310057,0.47129 0.310057,0.85576 0,0.79376 -0.632517,1.5007 -0.63252,0.70693 -1.56269,1.15341 -1.99678,0.97979 -3.48506,0.97979 -1.47588,0 -2.04639,-0.45889 -0.5581,-0.44648 -0.5581,-1.0666 0,-0.62012 0.31006,-1.14102 0.32246,-0.5333 0.81855,-0.5333 0.49609,0 0.49609,0.26045 z"
           style="font-style:normal;font-variant:normal;font-weight:normal;font-stretch:normal;font-size:25.4px;line-height:1.25;font-family:Yellowtail;-inkscape-font-specification:'Yellowtail, Normal';font-variant-ligatures:normal;font-variant-caps:normal;font-variant-numeric:normal;font-variant-east-asian:normal;fill:#ffffff;fill-opacity:1;stroke:none;stroke-width:0.264583"
           id="path861" />
        <path
           d="m 126.79151,94.351721 0.47129,-0.02481 q 0.21084,0 0.47129,0.186035 0.27285,0.186036 0.27285,0.322461 -0.062,0.272852 -2.92695,4.985742 -8.94209,14.696841 -9.84746,16.581991 0.45889,-0.48369 1.00459,-0.95498 0.55811,-0.45888 0.62012,-0.45888 0.0744,0 0.14882,0.0744 0.0744,0.0868 0.0744,0.16123 0,0.0868 -0.11162,0.21084 -0.11162,0.12403 -0.78135,0.97979 -0.65732,0.86816 -0.97978,1.22783 -0.32247,0.37207 -0.58292,0.78135 -0.24804,0.42168 -0.43408,0.59531 -0.17363,0.17363 -0.43408,0.17363 -0.75654,0 -1.27744,-0.65732 -0.5085,-0.64492 -0.5085,-1.09141 0,-0.86816 3.6835,-6.77169 3.6959,-5.90354 6.51123,-9.90952 -6.51123,7.6895 -10.36836,10.09556 -1.33945,0.84336 -2.18281,0.84336 -0.40928,0 -0.81856,-0.23565 -0.39687,-0.23564 -0.58291,-0.59531 -0.17363,-0.35967 -0.17363,-1.27744 0,-0.93018 0.79375,-2.65412 0.79375,-1.73634 2.04639,-3.70832 2.22002,-3.522282 4.09277,-6.027555 -1.66191,1.500684 -2.71611,1.500684 -0.48369,0 -0.64492,-0.136426 -0.14883,-0.148828 -0.42168,-0.446485 -0.26045,-0.310058 -0.26045,-0.669726 0,-0.37207 0.12402,-0.58291 0.13643,-0.21084 0.24805,-0.322461 0.42168,-0.42168 0.5457,-0.496094 0.12402,-0.07441 0.29766,-0.07441 0.18603,0 0.18603,0.06201 0,0.04961 -0.13642,0.16123 -0.12403,0.111621 -0.12403,0.173633 0,0.06201 0.13643,0.06201 0.13642,0 0.34726,-0.06201 0.21084,-0.07441 0.54571,-0.248047 0.34726,-0.186035 0.62011,-0.334863 0.28526,-0.161231 0.84336,-0.483692 0.55811,-0.334863 0.84336,-0.496093 0.29766,-0.161231 0.85576,-0.570508 0.57051,-0.42168 0.84336,-0.570508 0.45889,-0.272851 0.74414,-0.16123 0.29766,0.111621 0.45889,0.148828 0.17363,0.03721 0.29766,0.111621 0.13642,0.06201 0.24804,0.148828 0.38448,0.272852 0.38448,0.644922 0,0.359668 -0.35967,0.843359 -0.34727,0.483692 -1.5751,2.294434 -1.22783,1.79834 -2.77812,4.142389 -1.53789,2.33165 -2.71612,4.37805 -1.16582,2.0464 -1.16582,2.57971 0,0.18603 0.0992,0.18603 0.0992,0 0.73174,-0.48369 3.32383,-2.5673 8.4708,-8.04917 4.2292,-4.50205 4.98574,-5.568651 0.23565,-0.322461 0.45889,-0.434082 0.23564,-0.111621 0.70693,-0.111621 z"
           style="font-style:normal;font-variant:normal;font-weight:normal;font-stretch:normal;font-size:25.4px;line-height:1.25;font-family:Yellowtail;-inkscape-font-specification:'Yellowtail, Normal';font-variant-ligatures:normal;font-variant-caps:normal;font-variant-numeric:normal;font-variant-east-asian:normal;fill:#ffffff;fill-opacity:1;stroke:none;stroke-width:0.264583"
           id="path863" />
        <path
           d="m 132.0005,102.128 q 0.37207,0 0.75655,0.33487 0.39687,0.33486 0.39687,1.0294 0,0.68213 -0.48369,1.78594 -0.48369,1.09142 -1.32705,2.23244 -0.84336,1.12862 -1.86035,2.13322 -1.00459,0.99218 -2.18281,1.6371 -1.16582,0.63253 -2.1208,0.63253 -0.95498,0 -1.53789,-0.59532 -0.57051,-0.60771 -0.57051,-1.67431 0,-1.07902 0.5209,-2.38127 0.5333,-1.30225 1.36425,-2.29445 0.83096,-1.00459 1.79834,-1.79835 2.02159,-1.62471 3.54707,-1.62471 0.68213,0 1.0294,0.33486 0.12402,0.11162 0.12402,0.19844 v 0.0744 q 0.17363,-0.0248 0.5457,-0.0248 z m -1.25263,1.64952 h -0.0868 q -0.43408,0 -0.43408,-0.63252 -0.90537,0.29766 -1.89756,1.0418 -0.99219,0.74415 -1.77353,1.76114 -1.5875,2.034 -1.61231,3.43547 0,0.69454 0.5085,0.69454 0.50849,0 1.51308,-0.66973 1.00459,-0.66973 1.98438,-1.90997 0.99219,-1.24025 1.47588,-2.14562 0.49609,-0.91778 0.49609,-1.24024 0,-0.33487 -0.17363,-0.33487 z"
           style="font-style:normal;font-variant:normal;font-weight:normal;font-stretch:normal;font-size:25.4px;line-height:1.25;font-family:Yellowtail;-inkscape-font-specification:'Yellowtail, Normal';font-variant-ligatures:normal;font-variant-caps:normal;font-variant-numeric:normal;font-variant-east-asian:normal;fill:#ffffff;fill-opacity:1;stroke:none;stroke-width:0.264583"
           id="path865" />
        <path
           d="m 143.38586,107.68428 q 0.23564,0 0.28525,0.35967 0.0496,0.35967 0.0496,0.74415 0,0.38447 -0.0744,0.5333 -0.35967,0.69454 -1.5751,1.69913 -1.21543,0.99219 -2.30684,0.99219 -0.66972,0 -1.24023,-0.40928 -0.57051,-0.39688 -0.57051,-1.40147 0,-1.00459 0.5333,-1.97198 -3.07578,3.85714 -4.82451,3.85714 -0.69453,0 -1.12861,-0.4961 -0.42168,-0.49609 -0.42168,-1.01699 0,-0.5333 0.14882,-1.09141 0.14883,-0.57051 0.31006,-1.017 0.17364,-0.44648 0.4961,-1.10381 0.33486,-0.65733 0.49609,-0.95499 0.16123,-0.29765 0.5085,-0.89297 0.35966,-0.60772 0.93017,-1.62472 0.58291,-1.01699 0.95498,-1.50069 0.38447,-0.4961 0.74414,-0.4961 0.35967,-0.0124 0.63252,0.28526 0.27285,0.29766 0.27285,0.4837 0,0.18603 -0.83095,1.67432 -2.45567,4.44006 -2.45567,5.17181 0,0.18603 0.13643,0.18603 0.59531,0 2.96416,-2.5797 2.36885,-2.5797 2.74092,-3.29904 0.37207,-0.73174 0.71933,-1.22784 0.35967,-0.4961 0.5333,-0.60772 0.5333,-0.34726 1.37666,-0.37207 0.13643,0 0.21084,0.0124 0.0744,0.0124 0.17364,0.21084 0.0992,0.19844 0.0992,0.31006 -0.11163,0.34727 -0.99219,1.84796 -0.86817,1.50069 -0.96739,1.69913 -1.46347,3.02619 -1.46347,3.94397 0,0.5209 0.39687,0.5209 0.71934,-0.0992 1.73633,-1.15342 0.37207,-0.38448 0.73174,-0.78136 0.37207,-0.39687 0.45889,-0.45889 0.0868,-0.0744 0.21084,-0.0744 z"
           style="font-style:normal;font-variant:normal;font-weight:normal;font-stretch:normal;font-size:25.4px;line-height:1.25;font-family:Yellowtail;-inkscape-font-specification:'Yellowtail, Normal';font-variant-ligatures:normal;font-variant-caps:normal;font-variant-numeric:normal;font-variant-east-asian:normal;fill:#ffffff;fill-opacity:1;stroke:none;stroke-width:0.264583"
           id="path867" />
        <path
           d="m 146.98254,104.81933 q 2.92695,-3.32385 4.98574,-3.32385 0.50849,0 0.83096,0.31006 0.33486,0.29765 0.33486,0.78135 0,0.48369 -0.69453,1.62471 -0.68213,1.12863 -1.26504,1.90998 -0.31006,0.39688 -0.70694,0.39688 -0.38447,0 -0.60771,-0.28526 -0.21084,-0.28526 -0.21084,-0.66973 0,-0.85577 0.91777,-1.93478 l -0.0248,-0.0248 q -0.40928,0.0372 -2.03399,1.61232 -1.6123,1.5751 -2.75332,2.82775 -1.12861,1.24024 -2.45566,3.02618 -0.38447,0.5333 -0.65732,0.5333 -0.26045,0 -0.69454,-0.16123 -0.44648,-0.17363 -0.5333,-0.24805 -0.0992,-0.0744 -0.0992,-0.24804 0,-0.17364 0.0992,-0.39688 0.0992,-0.23564 0.37207,-0.65732 0.26045,-0.42169 0.79375,-1.36427 0.54571,-0.94258 1.68672,-2.85255 1.14102,-1.90997 1.36426,-2.30685 0.47129,-0.81856 0.76895,-1.19063 0.5581,-0.70694 1.88515,-0.70694 0.29766,0 0.29766,0.37207 0,0.58291 -1.07901,2.19523 z"
           style="font-style:normal;font-variant:normal;font-weight:normal;font-stretch:normal;font-size:25.4px;line-height:1.25;font-family:Yellowtail;-inkscape-font-specification:'Yellowtail, Normal';font-variant-ligatures:normal;font-variant-caps:normal;font-variant-numeric:normal;font-variant-east-asian:normal;fill:#ffffff;fill-opacity:1;stroke:none;stroke-width:0.264583"
           id="path869" />
        <path
           d="m 70.908336,122.98341 0.90537,-0.19844 q 0.34726,0 0.5581,0.14883 0.21084,0.14883 0.21084,0.28526 0,0.12402 -0.062,0.37207 -0.062,0.24804 -1.00459,4.83691 -0.94258,4.58887 -1.37666,6.84609 2.1084,-2.86494 4.92373,-7.05693 2.81534,-4.19199 3.28662,-5.56865 0.14883,-0.43408 0.38448,-0.66973 0.23564,-0.23564 0.42168,-0.27285 0.18603,-0.0496 0.5705,-0.0496 0.38448,0 0.90538,0.17363 0.5333,0.16123 0.5333,0.54571 0,0.73173 -2.17041,4.21679 -2.17041,3.48506 -4.96094,7.4042 -2.77813,3.91914 -4.65088,6.20117 -0.33486,0.40928 -0.81855,0.40928 -0.47129,0 -1.00459,-0.16123 -0.5209,-0.17363 -0.5209,-0.59531 0,-1.36426 2.39365,-13.10928 -2.04639,2.6541 -4.97334,7.3918 -3.05098,4.89892 -3.44785,6.07715 -0.22324,0.70693 -0.5085,0.81855 -0.19844,0.0868 -0.42168,0.0868 l -0.97978,0.11162 q -0.28526,0 -0.5209,-0.16123 -0.24805,-0.16123 -0.24805,-0.33486 0,-0.4961 1.36426,-2.96416 1.37666,-2.46807 3.1998,-5.35782 1.83555,-2.90215 3.83233,-5.64306 1.99678,-2.74092 3.08818,-3.6835 0.22324,-0.19844 0.5085,-0.19844 z"
           style="font-style:normal;font-variant:normal;font-weight:normal;font-stretch:normal;font-size:25.4px;line-height:1.25;font-family:Yellowtail;-inkscape-font-specification:'Yellowtail, Normal';font-variant-ligatures:normal;font-variant-caps:normal;font-variant-numeric:normal;font-variant-east-asian:normal;fill:#ffffff;fill-opacity:1;stroke:none;stroke-width:0.264583"
           id="path871" />
        <path
           d="m 84.513706,131.33019 q 0,0.81855 -0.66973,1.43867 -0.65732,0.62012 -1.50068,0.62012 -0.27285,0 -0.35967,-0.12403 -0.0868,-0.13642 -0.0868,-0.34726 0,-0.21084 0.0496,-0.40928 -0.44648,0.14883 -0.99218,0.45889 -0.54571,0.31006 -1.33946,0.91777 -0.79375,0.60772 -0.79375,0.90537 0,0.0992 0.28526,0.0992 0.29765,0 0.90537,-0.19844 0.60771,-0.21084 0.84336,-0.21084 0.24804,0 0.32246,0.0248 0.16123,0.0868 0.34726,0.38448 0.18604,0.28525 0.18604,0.45888 0,0.16123 -0.32246,0.43409 -0.32246,0.27285 -0.73174,0.42168 -0.40928,0.13642 -0.5457,0.21084 -2.6169,1.46347 -2.6169,2.00918 0,0.96738 1.64951,0.96738 1.0542,0 2.12081,-0.66973 0.90537,-0.57051 1.6247,-1.15342 0.73174,-0.59531 0.91778,-0.73173 0.19843,-0.13643 0.29765,-0.13643 0.32246,0 0.32246,0.71934 0,0.71933 -0.0868,0.95498 -0.0868,0.22324 -0.4961,0.5581 -2.6541,2.15801 -5.02295,2.15801 -1.26504,0 -2.02158,-0.34727 -1.38906,-0.63252 -1.38906,-1.93476 0,-1.71153 2.36885,-2.59209 -0.47129,-0.21084 -0.60772,-0.5333 -0.13642,-0.33487 -0.13642,-1.0542 0,-0.73174 0.66972,-1.53789 0.68213,-0.81856 1.66192,-1.33946 2.18281,-1.17822 3.89433,-1.17822 0.40928,0 0.83096,0.19844 0.42168,0.19844 0.42168,0.5581 z"
           style="font-style:normal;font-variant:normal;font-weight:normal;font-stretch:normal;font-size:25.4px;line-height:1.25;font-family:Yellowtail;-inkscape-font-specification:'Yellowtail, Normal';font-variant-ligatures:normal;font-variant-caps:normal;font-variant-numeric:normal;font-variant-east-asian:normal;fill:#ffffff;fill-opacity:1;stroke:none;stroke-width:0.264583"
           id="path873" />
        <path
           d="m 93.083726,129.43263 q 0.16123,-0.0992 0.43408,-0.0992 0.27285,0 0.69453,0.32246 0.42168,0.31006 0.42168,0.5457 0,0.22325 -0.16123,0.35967 -0.16123,0.13643 -1.14101,1.0294 -0.96739,0.88056 -2.22002,2.03398 -1.25264,1.15342 -1.99678,1.82315 -0.0992,1.19062 -0.0992,2.46806 0,1.26504 0.33486,1.26504 0.71934,-0.0992 1.73633,-1.15342 0.37207,-0.38447 0.73174,-0.78134 0.37207,-0.39688 0.44648,-0.45889 0.0868,-0.0744 0.21084,-0.0744 0.22325,0 0.27286,0.26045 0.062,0.26045 0.062,0.75654 0,0.48369 -0.062,0.62012 -0.33487,0.69453 -1.5751,1.69912 -1.22783,0.99219 -2.33164,0.99219 -1.79834,0 -1.79834,-2.48047 0,-0.5085 0.0744,-1.22783 -2.07119,2.18281 -3.33623,3.78271 -0.0992,0.13643 -0.40928,0.13643 -0.31005,0 -0.69453,-0.31006 -0.38447,-0.31006 -0.38447,-0.55811 0,-0.26045 0.0496,-0.40927 0.13643,-0.4961 1.5875,-2.0712 1.46348,-1.57509 3.33623,-3.1874 -0.0496,-1.0666 -0.0496,-1.63711 0,-0.58291 -0.0744,-0.58291 -0.062,0 -0.45889,0.35967 -0.38447,0.35967 -0.60772,0.35967 -0.22324,0 -0.40927,-0.39688 -0.17364,-0.39687 -0.17364,-0.5581 0,-0.55811 0.94258,-1.42627 0.95498,-0.86817 1.74873,-0.86817 0.22325,0 0.58291,0.23565 0.37207,0.22324 0.39688,0.49609 0.0868,1.30225 0.0868,2.15801 1.94717,-2.1208 3.83233,-3.42305 z"
           style="font-style:normal;font-variant:normal;font-weight:normal;font-stretch:normal;font-size:25.4px;line-height:1.25;font-family:Yellowtail;-inkscape-font-specification:'Yellowtail, Normal';font-variant-ligatures:normal;font-variant-caps:normal;font-variant-numeric:normal;font-variant-east-asian:normal;fill:#ffffff;fill-opacity:1;stroke:none;stroke-width:0.264583"
           id="path875" />
        <path
           d="m 102.00101,124.63292 0.5085,0.12403 q 0.11162,0 0.19844,0.11162 0.0868,0.11162 0.0868,0.21084 0,0.0992 -0.26045,0.5333 -0.26044,0.43408 -0.62011,0.99219 -0.34727,0.5457 -0.37207,0.59531 0.96738,-0.0744 1.36426,-0.0744 0.40927,0 0.5581,0.062 0.14883,0.0496 0.33486,0.31006 0.19844,0.24804 0.35967,0.38447 0.16123,0.12402 0.16123,0.38447 0,0.26045 -0.32246,0.44649 -0.31006,0.17363 -0.66973,0.21084 -2.87734,0.28525 -3.175,0.29765 -1.004594,1.53789 -2.815334,4.79971 -1.79834,3.24941 -1.90996,4.06797 -0.0496,0.37207 -0.0496,0.60771 0,0.4837 0.5085,0.4837 0.50849,0 1.12861,-0.38448 0.62012,-0.39687 1.14102,-0.85576 1.38906,-1.24023 1.48828,-1.24023 0.32246,0 0.32246,1.11621 0,0.60771 -0.55811,1.0914 -1.25263,1.07901 -2.10839,1.62471 -0.85577,0.5457 -1.71153,0.5457 -0.18603,0 -0.34726,-0.0372 -0.99219,-0.18604 -1.46348,-0.71934 -0.45889,-0.5457 -0.45889,-1.46348 0.0124,-0.91777 0.54571,-2.22002 0.5457,-1.31464 1.36425,-2.79052 1.33946,-2.40606 2.67891,-4.51446 l -0.47129,0.062 q -1.43867,0.16123 -1.67431,0.16123 h -0.11163 q -0.35966,0 -0.69453,-0.13642 -0.33486,-0.14883 -0.33486,-0.35967 0,-0.21084 0.17363,-0.40928 0.18604,-0.19843 0.22324,-0.31006 0.0868,-0.27285 0.64493,-0.60771 0.5705,-0.33486 0.85576,-0.34727 0.28525,-0.0248 0.5457,-0.0372 0.27285,-0.0124 0.59531,-0.0248 0.33487,-0.0124 0.5085,-0.0248 l 1.11621,-0.0496 q 1.041804,-1.56269 1.426274,-2.00917 0.39688,-0.44649 0.45889,-0.4837 0.062,-0.0496 0.24804,-0.0496 z"
           style="font-style:normal;font-variant:normal;font-weight:normal;font-stretch:normal;font-size:25.4px;line-height:1.25;font-family:Yellowtail;-inkscape-font-specification:'Yellowtail, Normal';font-variant-ligatures:normal;font-variant-caps:normal;font-variant-numeric:normal;font-variant-east-asian:normal;fill:#ffffff;fill-opacity:1;stroke:none;stroke-width:0.264583"
           id="path877" />
        <path
           d="m 120.75336,123.20665 q 0.38447,-0.85576 0.5457,-0.85576 h 0.062 q 0.18604,0 0.75655,0.39688 0.5705,0.39687 0.5705,0.74414 0,0.48369 -3.175,7.49101 -3.175,7.00733 -3.64629,7.86309 -0.45888,0.84336 -0.63252,1.12861 -0.17363,0.28526 -0.47128,0.63252 -0.53331,0.65733 -1.32706,0.65733 -0.32246,0 -0.5705,0.0744 -0.24805,0.0868 -0.29766,0.0868 -0.39687,0 -0.39687,-0.18604 0,-0.0372 0.0992,-0.31006 0.11163,-0.26045 2.84014,-6.01513 -2.91455,-0.11163 -5.12217,-0.17364 -2.1208,2.66651 -3.84472,5.58106 -0.21084,0.40928 -0.39688,0.57051 -0.18603,0.17363 -0.50849,0.17363 -0.32247,0 -0.69454,-0.33486 -0.37207,-0.32247 -0.37207,-0.75655 0,-1.24023 3.19981,-5.3082 -1.50068,0 -1.90996,0.0744 -0.39688,0.0744 -0.5085,0.0744 -0.33486,0 -0.33486,-0.55811 0,-0.5705 0.65732,-0.99218 0.66973,-0.43409 1.78594,-0.43409 0.0868,0 0.31006,-0.0124 0.76894,-0.0372 1.5751,-0.062 2.70371,-3.175 5.65547,-5.89111 2.95175,-2.71611 5.10976,-3.80752 0.34727,-0.17363 0.5457,-0.16123 0.21084,0 0.4961,0.31006 z m -0.86817,1.74873 q -4.52685,3.43545 -8.27236,7.80108 2.19522,0.0496 4.44004,0.18603 2.25723,-4.75009 3.83232,-7.98711 z"
           style="font-style:normal;font-variant:normal;font-weight:normal;font-stretch:normal;font-size:25.4px;line-height:1.25;font-family:Yellowtail;-inkscape-font-specification:'Yellowtail, Normal';font-variant-ligatures:normal;font-variant-caps:normal;font-variant-numeric:normal;font-variant-east-asian:normal;fill:#ffffff;fill-opacity:1;stroke:none;stroke-width:0.264583"
           id="path879" />
        <path
           d="m 134.69359,122.01603 q 0.23564,0 0.37207,0.14883 0.13642,0.14882 0.13642,0.31006 0,0.14882 -0.24804,0.5705 -0.23565,0.40928 -1.10381,1.81075 -0.86817,1.38906 -1.35186,2.18281 -2.81533,4.57646 -4.41523,7.73906 -1.59991,3.1626 -1.59991,3.81992 v 0.0992 q 0,0.5085 0.37207,0.5085 0.37208,0 0.89297,-0.34727 0.5333,-0.34726 0.93018,-0.74414 0.39687,-0.39687 0.79375,-0.81855 0.40928,-0.43408 0.49609,-0.5085 0.0868,-0.0744 0.22325,-0.0744 0.21083,0 0.27285,0.27285 0.062,0.26045 0.062,0.74414 0,0.47129 -0.0744,0.62012 -0.35966,0.69453 -1.5875,1.69912 -1.21543,0.9922 -2.30683,0.9922 -1.86035,0 -1.86035,-1.57511 0,-0.97978 0.74414,-2.56728 -1.00459,1.30224 -2.04639,2.22002 -1.93476,1.68672 -3.36103,1.68672 -0.79375,0 -1.17823,-0.55811 -0.37207,-0.55811 -0.37207,-1.5999 0,-1.0542 0.81856,-2.51768 0.81855,-1.46347 2.03398,-2.6293 1.22783,-1.17822 2.71612,-1.95957 1.48828,-0.79375 2.74091,-0.79375 0.39688,0 0.93018,0.4837 0.35967,-0.57051 1.32705,-2.28204 3.03857,-5.12216 4.01836,-6.25078 0.5209,-0.68213 1.62471,-0.68213 z m -7.72666,10.38076 q -1.78594,0.39688 -3.32383,1.66191 -1.53789,1.26504 -2.30684,2.65411 -0.76894,1.37666 -0.76894,1.78593 0,0.40928 0.17363,0.40928 0.74414,0 3.6835,-3.32383 1.46347,-1.63711 2.54248,-3.1874 z"
           style="font-style:normal;font-variant:normal;font-weight:normal;font-stretch:normal;font-size:25.4px;line-height:1.25;font-family:Yellowtail;-inkscape-font-specification:'Yellowtail, Normal';font-variant-ligatures:normal;font-variant-caps:normal;font-variant-numeric:normal;font-variant-east-asian:normal;fill:#ffffff;fill-opacity:1;stroke:none;stroke-width:0.264583"
           id="path881" />
        <path
           d="m 139.91498,131.05734 q 0,0.85576 -0.95498,2.50527 -0.95498,1.63711 -2.45566,3.32383 -1.48828,1.68672 -3.1626,2.92695 -1.67432,1.22784 -2.61689,1.22784 -0.5085,0 -0.93018,-0.37208 -0.42168,-0.37207 -0.42168,-1.17822 0,-0.81855 0.76895,-2.56728 0.76894,-1.74873 1.51308,-2.95176 -0.65732,0.48369 -0.80615,0.48369 -0.13643,0 -0.35967,-0.32246 -0.21084,-0.32246 -0.21084,-0.4961 0,-0.18603 0.062,-0.27285 2.44326,-2.71611 3.44785,-2.71611 0.42168,0 0.70694,0.24805 0.28525,0.24804 0.28525,0.59531 0,0.34726 -0.84336,1.99678 -0.84336,1.64951 -1.68672,3.33623 -0.84336,1.67431 -0.84336,2.1084 0,0.0744 0.0744,0.0744 0.32246,0 1.73633,-1.27745 1.42627,-1.28984 2.30683,-2.39365 0.88057,-1.10381 1.53789,-2.22002 0.66973,-1.11621 0.66973,-1.46347 0,-0.34727 -0.14883,-0.57051 -0.13642,-0.23565 -0.13642,-0.4961 0,-0.27285 0.35966,-0.59531 0.37207,-0.33486 0.94258,-0.33486 1.16582,0 1.16582,1.40146 z"
           style="font-style:normal;font-variant:normal;font-weight:normal;font-stretch:normal;font-size:25.4px;line-height:1.25;font-family:Yellowtail;-inkscape-font-specification:'Yellowtail, Normal';font-variant-ligatures:normal;font-variant-caps:normal;font-variant-numeric:normal;font-variant-east-asian:normal;fill:#ffffff;fill-opacity:1;stroke:none;stroke-width:0.264583"
           id="path883" />
        <path
           d="m 147.34399,131.33019 q 0,0.81855 -0.66973,1.43867 -0.65733,0.62012 -1.50068,0.62012 -0.27286,0 -0.35967,-0.12403 -0.0868,-0.13642 -0.0868,-0.34726 0,-0.21084 0.0496,-0.40928 -0.44648,0.14883 -0.99219,0.45889 -0.5457,0.31006 -1.33945,0.91777 -0.79375,0.60772 -0.79375,0.90537 0,0.0992 0.28525,0.0992 0.29766,0 0.90538,-0.19844 0.60771,-0.21084 0.84335,-0.21084 0.24805,0 0.32247,0.0248 0.16123,0.0868 0.34726,0.38448 0.18604,0.28525 0.18604,0.45888 0,0.16123 -0.32246,0.43409 -0.32247,0.27285 -0.73174,0.42168 -0.40928,0.13642 -0.54571,0.21084 -2.61689,1.46347 -2.61689,2.00918 0,0.96738 1.64951,0.96738 1.0542,0 2.1208,-0.66973 0.90537,-0.57051 1.62471,-1.15342 0.73174,-0.59531 0.91777,-0.73173 0.19844,-0.13643 0.29766,-0.13643 0.32246,0 0.32246,0.71934 0,0.71933 -0.0868,0.95498 -0.0868,0.22324 -0.49609,0.5581 -2.6541,2.15801 -5.02295,2.15801 -1.26504,0 -2.02158,-0.34727 -1.38906,-0.63252 -1.38906,-1.93476 0,-1.71153 2.36884,-2.59209 -0.47129,-0.21084 -0.60771,-0.5333 -0.13643,-0.33487 -0.13643,-1.0542 0,-0.73174 0.66973,-1.53789 0.68213,-0.81856 1.66191,-1.33946 2.18282,-1.17822 3.89434,-1.17822 0.40928,0 0.83096,0.19844 0.42168,0.19844 0.42168,0.5581 z"
           style="font-style:normal;font-variant:normal;font-weight:normal;font-stretch:normal;font-size:25.4px;line-height:1.25;font-family:Yellowtail;-inkscape-font-specification:'Yellowtail, Normal';font-variant-ligatures:normal;font-variant-caps:normal;font-variant-numeric:normal;font-variant-east-asian:normal;fill:#ffffff;fill-opacity:1;stroke:none;stroke-width:0.264583"
           id="path885" />
        <path
           d="m 153.34672,138.69718 q 0,0.5457 0.74414,0.5457 0.39688,0 0.99219,-0.39687 0.60771,-0.39688 1.0914,-0.86817 1.28985,-1.27744 1.46348,-1.27744 0.32246,0 0.32246,0.93018 0,0.93018 -0.58291,1.27744 -1.77353,1.5999 -2.74092,1.94717 -0.5457,0.18604 -1.20302,0.17363 -0.65733,-0.0124 -1.30225,-0.57051 -0.64492,-0.5581 -0.64492,-1.35185 0,-0.80615 0.42168,-1.82315 0.42168,-1.01699 0.85576,-1.73632 0.44648,-0.73174 1.09141,-1.68672 0.64492,-0.96739 0.68213,-1.20303 l -0.0248,-0.0248 q -0.40928,0.0372 -2.03398,1.6123 -1.61231,1.5751 -2.66651,2.74092 -1.0542,1.16582 -2.51767,3.11299 -0.40928,0.5333 -0.66973,0.5333 -0.26045,0 -0.69453,-0.16123 -0.44649,-0.17363 -0.5457,-0.24805 -0.0992,-0.0744 -0.0992,-0.22324 0,-0.14883 0.0868,-0.35967 0.0868,-0.22324 0.17364,-0.35966 0.0744,-0.14883 0.26045,-0.44649 0.18603,-0.29765 0.73173,-1.25264 0.55811,-0.96738 1.69912,-2.87734 1.14102,-1.90996 1.36426,-2.30683 0.47129,-0.81856 0.76895,-1.19063 0.5581,-0.70693 1.88515,-0.70693 0.29766,0 0.29766,0.37207 0,0.58291 -1.079,2.19521 l -0.5209,0.78135 q 2.1456,-2.38125 3.62148,-3.01377 0.71934,-0.31006 1.28985,-0.31006 0.58291,0 0.91777,0.31006 0.34726,0.31006 0.34726,0.69453 0,0.37207 -0.26044,0.90537 -0.26045,0.5209 -0.53331,0.94258 -0.26044,0.40928 -0.69453,1.0418 -0.43408,0.63252 -0.47129,0.69453 -0.0372,0.0496 -0.19843,0.29765 -0.14883,0.23565 -0.22325,0.34727 -0.0744,0.11162 -0.24804,0.39688 -0.17363,0.27285 -0.28526,0.45888 -0.0992,0.18604 -0.26045,0.45889 -0.14882,0.27285 -0.24804,0.47129 -0.0868,0.19844 -0.18604,0.43408 -0.17363,0.43408 -0.17363,0.71934 z"
           style="font-style:normal;font-variant:normal;font-weight:normal;font-stretch:normal;font-size:25.4px;line-height:1.25;font-family:Yellowtail;-inkscape-font-specification:'Yellowtail, Normal';font-variant-ligatures:normal;font-variant-caps:normal;font-variant-numeric:normal;font-variant-east-asian:normal;fill:#ffffff;fill-opacity:1;stroke:none;stroke-width:0.264583"
           id="path887" />
        <path
           d="m 165.32738,124.63292 0.5085,0.12403 q 0.11162,0 0.19844,0.11162 0.0868,0.11162 0.0868,0.21084 0,0.0992 -0.26045,0.5333 -0.26044,0.43408 -0.62011,0.99219 -0.34727,0.5457 -0.37207,0.59531 0.96738,-0.0744 1.36426,-0.0744 0.40927,0 0.5581,0.062 0.14883,0.0496 0.33486,0.31006 0.19844,0.24804 0.35967,0.38447 0.16123,0.12402 0.16123,0.38447 0,0.26045 -0.32246,0.44649 -0.31006,0.17363 -0.66973,0.21084 -2.87734,0.28525 -3.175,0.29765 -1.00458,1.53789 -2.81533,4.79971 -1.79834,3.24941 -1.90996,4.06797 -0.0496,0.37207 -0.0496,0.60771 0,0.4837 0.5085,0.4837 0.50849,0 1.12861,-0.38448 0.62012,-0.39687 1.14102,-0.85576 1.38906,-1.24023 1.48828,-1.24023 0.32246,0 0.32246,1.11621 0,0.60771 -0.55811,1.0914 -1.25263,1.07901 -2.10839,1.62471 -0.85577,0.5457 -1.71153,0.5457 -0.18603,0 -0.34726,-0.0372 -0.99219,-0.18604 -1.46348,-0.71934 -0.45889,-0.5457 -0.45889,-1.46348 0.0124,-0.91777 0.54571,-2.22002 0.5457,-1.31464 1.36425,-2.79052 1.33946,-2.40606 2.67891,-4.51446 l -0.47129,0.062 q -1.43867,0.16123 -1.67431,0.16123 h -0.11163 q -0.35966,0 -0.69453,-0.13642 -0.33486,-0.14883 -0.33486,-0.35967 0,-0.21084 0.17363,-0.40928 0.18604,-0.19843 0.22324,-0.31006 0.0868,-0.27285 0.64493,-0.60771 0.5705,-0.33486 0.85576,-0.34727 0.28525,-0.0248 0.5457,-0.0372 0.27285,-0.0124 0.59531,-0.0248 0.33487,-0.0124 0.5085,-0.0248 l 1.11621,-0.0496 q 1.0418,-1.56269 1.42627,-2.00917 0.39688,-0.44649 0.45889,-0.4837 0.062,-0.0496 0.24804,-0.0496 z"
           style="font-style:normal;font-variant:normal;font-weight:normal;font-stretch:normal;font-size:25.4px;line-height:1.25;font-family:Yellowtail;-inkscape-font-specification:'Yellowtail, Normal';font-variant-ligatures:normal;font-variant-caps:normal;font-variant-numeric:normal;font-variant-east-asian:normal;fill:#ffffff;fill-opacity:1;stroke:none;stroke-width:0.264583"
           id="path889" />
        <path
           d="m 172.75639,136.71281 q 0.23564,0 0.28525,0.35966 0.0496,0.35967 0.0496,0.74414 0,0.38448 -0.0744,0.53331 -0.35967,0.69453 -1.5751,1.69912 -1.21543,0.99219 -2.30684,0.99219 -0.66972,0 -1.24023,-0.40928 -0.57051,-0.39688 -0.57051,-1.40147 0,-1.00459 0.5333,-1.97197 -3.07578,3.85713 -4.82451,3.85713 -0.69453,0 -1.12861,-0.4961 -0.42168,-0.49609 -0.42168,-1.01699 0,-0.5333 0.14883,-1.0914 0.14882,-0.57051 0.31005,-1.017 0.17364,-0.44648 0.4961,-1.10381 0.33486,-0.65732 0.49609,-0.95498 0.16123,-0.29765 0.5085,-0.89296 0.35967,-0.60772 0.93017,-1.62471 0.58291,-1.01699 0.95498,-1.50068 0.38448,-0.4961 0.74414,-0.4961 0.35967,-0.0124 0.63252,0.28526 0.27286,0.29765 0.27286,0.48369 0,0.18603 -0.83096,1.67431 -2.45567,4.44004 -2.45567,5.17178 0,0.18604 0.13643,0.18604 0.59531,0 2.96416,-2.57969 2.36885,-2.57969 2.74092,-3.29903 0.37207,-0.73173 0.71933,-1.22783 0.35967,-0.49609 0.53331,-0.60771 0.5333,-0.34727 1.37666,-0.37207 0.13642,0 0.21084,0.0124 0.0744,0.0124 0.17363,0.21084 0.0992,0.19844 0.0992,0.31006 -0.11162,0.34726 -0.99219,1.84795 -0.86816,1.50068 -0.96738,1.69912 -1.46348,3.02617 -1.46348,3.94394 0,0.5209 0.39688,0.5209 0.71933,-0.0992 1.73632,-1.15342 0.37207,-0.38447 0.73174,-0.78135 0.37207,-0.39687 0.45889,-0.45888 0.0868,-0.0744 0.21084,-0.0744 z"
           style="font-style:normal;font-variant:normal;font-weight:normal;font-stretch:normal;font-size:25.4px;line-height:1.25;font-family:Yellowtail;-inkscape-font-specification:'Yellowtail, Normal';font-variant-ligatures:normal;font-variant-caps:normal;font-variant-numeric:normal;font-variant-east-asian:normal;fill:#ffffff;fill-opacity:1;stroke:none;stroke-width:0.264583"
           id="path891" />
        <path
           d="m 176.35307,133.84786 q 2.92695,-3.32382 4.98574,-3.32382 0.5085,0 0.83096,0.31005 0.33486,0.29766 0.33486,0.78135 0,0.48369 -0.69453,1.62471 -0.68213,1.12861 -1.26504,1.90996 -0.31006,0.39688 -0.70693,0.39688 -0.38448,0 -0.60772,-0.28526 -0.21084,-0.28525 -0.21084,-0.66972 0,-0.85577 0.91778,-1.93477 l -0.0248,-0.0248 q -0.40928,0.0372 -2.03398,1.6123 -1.61231,1.5751 -2.75332,2.82774 -1.12862,1.24023 -2.45567,3.02617 -0.38447,0.5333 -0.65732,0.5333 -0.26045,0 -0.69453,-0.16123 -0.44649,-0.17363 -0.5333,-0.24805 -0.0992,-0.0744 -0.0992,-0.24804 0,-0.17364 0.0992,-0.39688 0.0992,-0.23564 0.37207,-0.65732 0.26045,-0.42168 0.79375,-1.36426 0.5457,-0.94258 1.68671,-2.85254 1.14102,-1.90996 1.36426,-2.30683 0.47129,-0.81856 0.76895,-1.19063 0.5581,-0.70693 1.88515,-0.70693 0.29766,0 0.29766,0.37207 0,0.58291 -1.079,2.19521 z"
           style="font-style:normal;font-variant:normal;font-weight:normal;font-stretch:normal;font-size:25.4px;line-height:1.25;font-family:Yellowtail;-inkscape-font-specification:'Yellowtail, Normal';font-variant-ligatures:normal;font-variant-caps:normal;font-variant-numeric:normal;font-variant-east-asian:normal;fill:#ffffff;fill-opacity:1;stroke:none;stroke-width:0.264583"
           id="path893" />
        <path
           d="m 189.69799,131.33019 q 0,0.81855 -0.66973,1.43867 -0.65732,0.62012 -1.50068,0.62012 -0.27285,0 -0.35967,-0.12403 -0.0868,-0.13642 -0.0868,-0.34726 0,-0.21084 0.0496,-0.40928 -0.44648,0.14883 -0.99218,0.45889 -0.54571,0.31006 -1.33946,0.91777 -0.79375,0.60772 -0.79375,0.90537 0,0.0992 0.28526,0.0992 0.29765,0 0.90537,-0.19844 0.60771,-0.21084 0.84336,-0.21084 0.24805,0 0.32246,0.0248 0.16123,0.0868 0.34726,0.38448 0.18604,0.28525 0.18604,0.45888 0,0.16123 -0.32246,0.43409 -0.32246,0.27285 -0.73174,0.42168 -0.40928,0.13642 -0.5457,0.21084 -2.6169,1.46347 -2.6169,2.00918 0,0.96738 1.64951,0.96738 1.0542,0 2.12081,-0.66973 0.90537,-0.57051 1.6247,-1.15342 0.73174,-0.59531 0.91778,-0.73173 0.19843,-0.13643 0.29765,-0.13643 0.32246,0 0.32246,0.71934 0,0.71933 -0.0868,0.95498 -0.0868,0.22324 -0.4961,0.5581 -2.6541,2.15801 -5.02295,2.15801 -1.26504,0 -2.02158,-0.34727 -1.38906,-0.63252 -1.38906,-1.93476 0,-1.71153 2.36885,-2.59209 -0.47129,-0.21084 -0.60772,-0.5333 -0.13642,-0.33487 -0.13642,-1.0542 0,-0.73174 0.66972,-1.53789 0.68213,-0.81856 1.66192,-1.33946 2.18281,-1.17822 3.89433,-1.17822 0.40928,0 0.83096,0.19844 0.42168,0.19844 0.42168,0.5581 z"
           style="font-style:normal;font-variant:normal;font-weight:normal;font-stretch:normal;font-size:25.4px;line-height:1.25;font-family:Yellowtail;-inkscape-font-specification:'Yellowtail, Normal';font-variant-ligatures:normal;font-variant-caps:normal;font-variant-numeric:normal;font-variant-east-asian:normal;fill:#ffffff;fill-opacity:1;stroke:none;stroke-width:0.264583"
           id="path895" />
      </g>
      <path
         d="m 196.50688,127.59708 q 0.18603,0 0.18603,0.23565 0,0.57051 -0.50849,0.86816 -0.5085,0.29766 -1.21543,0.29766 -0.70694,0 -1.30225,-0.48369 -0.58291,-0.48369 -0.58291,-1.0418 0,-1.01699 0.75654,-1.97197 0.76895,-0.95498 1.93477,-1.59991 2.57969,-1.42626 5.14697,-1.42626 2.98897,0 4.40283,1.69912 0.71934,0.86816 0.71934,1.95957 0,1.0914 -0.37207,1.94716 -0.37207,0.85577 -1.01699,1.50069 -0.64493,0.64492 -1.43868,1.19062 -0.79375,0.54571 -1.72392,1.0418 -0.91777,0.48369 -1.77354,0.93018 -2.07119,1.0914 -3.07578,2.09599 -0.40928,0.43408 -0.28525,1.07901 0.0372,0.19843 -0.13643,0.34726 -0.17363,0.14883 -0.49609,0.14883 -0.31006,0 -0.49609,-0.0248 -0.17364,-0.0372 -0.44649,-0.12402 -0.60771,-0.17364 -0.60771,-0.80616 0,-1.17822 1.01699,-2.10839 0.81855,-0.76895 3.00137,-2.05879 2.19521,-1.28985 3.27421,-2.02159 2.39366,-1.6247 2.39366,-3.12539 0,-1.6247 -2.76573,-1.6247 -1.12861,0 -2.44326,0.47129 -1.31465,0.47129 -2.23242,1.22783 -0.90537,0.75654 -0.90537,1.47588 0,0.0496 0.12402,0.12402 0.13643,0.062 0.26045,0.062 0.12402,0 0.34727,-0.13643 0.22324,-0.14882 0.26045,-0.14882 z m -1.95957,11.57139 q 0,0.69453 -0.65733,1.41387 -0.64492,0.71933 -1.36426,0.71933 -0.71933,0 -0.71933,-0.74414 0,-0.75654 0.63252,-1.42627 0.64492,-0.68213 1.40146,-0.68213 0.32246,0 0.5085,0.18604 0.19844,0.18603 0.19844,0.5333 z"
         style="font-style:normal;font-variant:normal;font-weight:normal;font-stretch:normal;font-size:25.4px;line-height:1.25;font-family:Yellowtail;-inkscape-font-specification:'Yellowtail, Normal';font-variant-ligatures:normal;font-variant-caps:normal;font-variant-numeric:normal;font-variant-east-asian:normal;fill:#ffffff;fill-opacity:1;stroke:none;stroke-width:0.264583"
         id="path897" />
    </g>
    <text
       xml:space="preserve"
       id="text843"
       style="font-style:normal;font-weight:normal;font-size:10.5833px;line-height:1.25;font-family:sans-serif;white-space:pre;shape-inside:url(#rect845);fill:#000000;fill-opacity:1;stroke:none;" />
  </g>
</svg>
